<?xml version="1.0" standalone="no"?>
<!DOCTYPE svg PUBLIC "-//W3C//DTD SVG 20010904//EN"
 "http://www.w3.org/TR/2001/REC-SVG-20010904/DTD/svg10.dtd">
<svg version="1.0" xmlns="http://www.w3.org/2000/svg"
 width="2048.000000pt" height="2048.000000pt" viewBox="0 0 2048.000000 2048.000000"
 preserveAspectRatio="xMidYMid meet">

<g transform="translate(0.000000,2048.000000) scale(0.100000,-0.100000)"
fill="#000000" stroke="none">
<path d="M10293 13525 c0 -22 2 -30 4 -17 2 12 2 30 0 40 -3 9 -5 -1 -4 -23z"/>
<path d="M13062 13190 l-2 -40 110 0 110 0 0 -43 0 -42 -73 -12 c-87 -14 -163
-46 -255 -107 l-67 -45 -340 -10 c-187 -6 -393 -13 -457 -17 l-118 -6 0 44 c0
51 -19 83 -55 92 -23 6 -25 11 -25 56 0 28 3 50 8 50 4 0 79 -9 167 -21 126
-16 194 -20 320 -16 150 5 307 27 329 47 9 9 -31 22 -131 43 -95 19 -436 14
-571 -10 -62 -11 -114 -17 -117 -15 -3 3 -5 13 -5 23 0 10 -11 26 -24 34 -34
23 -75 10 -88 -26 -12 -34 -17 -34 -123 -12 -117 24 -480 25 -588 1 -106 -24
-120 -32 -76 -46 129 -41 406 -49 632 -18 75 11 139 17 141 15 2 -2 7 -25 11
-50 7 -44 5 -47 -19 -53 -14 -3 -35 -16 -46 -28 -18 -20 -20 -35 -20 -190 0
-133 3 -175 15 -199 23 -44 71 -69 132 -69 44 0 58 5 87 30 18 17 37 41 40 55
8 32 -1 32 372 -2 l301 -27 89 -150 c138 -231 221 -301 376 -314 l73 -7 -3
-100 c-3 -89 -1 -105 20 -144 32 -62 66 -84 135 -88 71 -5 118 17 145 68 14
27 18 57 18 152 l0 119 31 -4 c83 -12 204 30 279 99 35 31 115 156 205 319
l28 51 281 27 c155 15 302 29 327 33 46 5 47 5 64 -31 48 -101 195 -115 250
-23 18 29 20 48 18 202 -2 93 -5 177 -9 187 -3 9 -21 23 -40 30 -32 11 -34 14
-34 61 l0 50 48 -7 c212 -30 328 -38 462 -33 140 5 306 29 324 47 9 9 -29 21
-134 41 -94 19 -409 16 -544 -4 -138 -21 -143 -21 -151 3 -10 31 -34 50 -64
50 -32 0 -46 -13 -56 -53 -5 -19 -12 -26 -24 -23 -9 3 -56 13 -106 23 -179 35
-645 17 -689 -27 -14 -14 -9 -17 84 -37 121 -26 462 -26 608 1 56 10 109 15
117 12 10 -4 15 -20 15 -50 0 -42 -2 -45 -34 -56 -39 -12 -46 -25 -46 -80 0
-21 -4 -41 -9 -44 -4 -3 -210 2 -457 10 l-449 16 -50 32 c-104 68 -131 83
-184 101 -30 10 -77 20 -105 24 l-51 6 -3 43 -3 43 105 -3 106 -3 0 43 0 42
-267 0 -268 0 -3 -40z m494 -279 c38 -18 92 -50 120 -72 l52 -40 163 -9 c90
-5 268 -11 394 -14 258 -7 399 -15 391 -23 -3 -3 -117 -16 -253 -29 -136 -13
-304 -30 -373 -39 -69 -8 -186 -22 -260 -31 -74 -9 -141 -21 -149 -28 -8 -6
-38 -62 -68 -123 l-53 -113 -183 0 -183 0 -57 119 c-34 71 -64 122 -74 125
-16 5 -300 38 -688 81 -77 8 -184 18 -238 22 -54 3 -100 9 -102 14 -7 10 109
17 500 29 446 14 444 14 503 60 110 87 192 111 363 107 117 -3 130 -6 195 -36z
m-1686 -136 c0 -127 -1 -135 -21 -146 -17 -9 -25 -8 -38 5 -12 13 -17 42 -20
131 -2 63 -1 122 3 130 3 9 18 15 41 15 l35 0 0 -135z m2995 -5 c0 -122 -2
-135 -18 -138 -40 -8 -47 14 -47 143 0 67 3 125 7 129 4 4 19 6 33 4 l25 -3 0
-135z m-1945 -226 l55 -6 44 -94 c68 -145 56 -138 289 -142 246 -4 259 -1 305
76 19 31 46 80 60 108 26 51 26 52 84 58 32 4 75 9 96 12 38 6 39 6 27 -17
-83 -159 -166 -271 -223 -302 -41 -21 -50 -22 -315 -21 l-273 2 -54 26 c-57
29 -95 72 -158 182 -19 32 -44 77 -57 98 l-24 39 45 -6 c24 -3 69 -9 99 -13z
m468 -456 c-2 -13 -6 -22 -10 -20 -5 1 -30 2 -58 2 -43 0 -50 3 -50 20 0 18 7
20 61 20 57 0 60 -1 57 -22z m-17 -118 c24 -13 25 -57 2 -82 -36 -40 -103 -9
-103 47 0 18 6 36 13 38 22 9 68 7 88 -3z"/>
<path d="M11385 12641 c-95 -27 -208 -88 -274 -147 -109 -99 -163 -254 -141
-401 24 -149 24 -150 1 -189 -23 -38 -108 -149 -326 -424 -72 -91 -170 -214
-217 -275 -48 -60 -130 -165 -183 -232 -53 -68 -99 -123 -103 -123 -4 0 -151
193 -326 428 -545 728 -827 1093 -860 1113 -67 41 -177 16 -209 -48 -53 -104
-50 -109 311 -583 l134 -175 51 -12 c29 -6 52 -11 53 -10 1 1 -88 119 -198
262 -253 331 -298 398 -298 439 0 63 76 99 127 58 11 -9 81 -96 154 -192 231
-303 1009 -1341 1009 -1346 0 -12 -617 -796 -803 -1020 l-29 -34 84 1 83 0
127 162 c69 89 195 250 279 357 84 107 229 292 323 410 190 240 299 379 366
466 25 32 128 165 230 295 375 481 368 468 334 629 -31 145 -2 254 90 345 56
55 184 141 194 130 3 -2 -28 -47 -68 -100 -50 -65 -73 -104 -73 -123 0 -15 33
-95 73 -179 l73 -152 86 -20 c47 -11 126 -27 174 -37 86 -17 89 -17 115 3 15
11 62 61 105 111 86 102 92 100 61 -22 -36 -141 -116 -246 -230 -303 l-75 -37
-197 -7 c-373 -14 -404 -35 -754 -495 -109 -142 -284 -369 -390 -504 -289
-369 -683 -882 -696 -906 -10 -19 -9 -23 10 -27 12 -4 28 -1 36 5 19 16 257
313 432 538 79 102 160 205 180 230 82 100 444 564 546 700 154 204 230 282
318 325 94 46 170 56 401 53 189 -3 190 -3 240 23 72 39 124 82 172 147 85
113 138 292 131 443 -3 65 -7 81 -27 103 -14 14 -33 26 -42 26 -11 0 -56 -43
-106 -102 -48 -56 -108 -123 -133 -149 l-45 -47 -117 27 -117 26 -44 95 c-25
52 -47 104 -51 115 -4 16 20 53 104 160 60 77 110 148 110 157 0 10 -10 26
-22 38 -27 25 -79 25 -163 1z"/>
<path d="M7063 12153 l-15 -28 -479 3 -479 3 0 -36 0 -35 476 0 c450 0 476 -1
469 -17 -20 -46 -44 -120 -45 -135 0 -22 3 -21 -270 -58 -251 -33 -429 -50
-537 -50 -65 0 -76 3 -104 28 -17 15 -65 79 -107 142 -94 141 -109 150 -239
150 -51 0 -93 -2 -93 -4 0 -31 114 -453 125 -466 20 -22 41 -26 239 -45 219
-21 223 -22 336 -105 36 -26 102 -66 146 -88 76 -38 213 -82 256 -82 28 0 22
-42 -12 -85 -41 -52 -41 -105 -1 -146 42 -42 101 -41 143 2 29 28 30 34 25 82
-6 50 -5 54 31 94 l37 41 242 6 241 5 7 -26 c4 -19 0 -32 -15 -48 -12 -13 -24
-41 -27 -64 -5 -36 -2 -44 30 -76 69 -69 167 -25 167 76 0 28 -23 60 -62 84
-9 6 -19 24 -23 41 l-6 31 88 21 c134 34 264 102 345 181 42 41 68 75 68 88 0
37 -101 117 -223 177 -166 82 -231 97 -422 103 l-160 5 -23 57 c-13 31 -25 62
-29 69 -4 9 98 12 491 12 l496 0 0 36 0 36 -494 -3 -495 -3 -21 27 c-27 35
-57 35 -77 0z m-1222 -151 c14 -16 52 -71 84 -123 72 -117 81 -128 130 -150
30 -14 64 -19 140 -19 137 0 401 25 577 54 231 39 421 59 578 60 122 0 158 -3
223 -22 111 -32 327 -143 327 -168 0 -15 -136 -109 -203 -139 -30 -14 -88 -34
-129 -44 -90 -23 -320 -44 -438 -39 l-85 3 52 38 c59 43 73 71 49 96 -14 13
-44 17 -166 19 -146 3 -149 3 -163 -20 -8 -13 -18 -47 -22 -75 -8 -61 -7 -61
-110 -34 -101 26 -151 50 -290 142 -78 50 -144 86 -177 94 -29 8 -125 19 -213
25 -99 7 -164 15 -172 23 -10 10 -93 288 -93 312 0 19 76 -6 101 -33z m1288
-46 c12 -33 12 -39 0 -47 -22 -14 -72 -11 -66 4 2 6 10 29 18 50 16 45 29 43
48 -7z m-196 -560 c-54 -57 -99 -100 -101 -95 -5 14 29 173 40 187 7 7 37 12
85 12 l75 0 -99 -104z m597 -201 c10 -12 10 -18 0 -30 -25 -30 -61 -7 -46 30
3 8 12 15 19 15 8 0 20 -7 27 -15z m-716 -1 c9 -3 16 -14 16 -24 0 -23 -26
-44 -45 -36 -18 7 -20 52 -2 59 6 3 13 6 14 6 1 1 8 -2 17 -5z"/>
<path d="M7097 11711 c-196 -5 -239 -9 -247 -21 -25 -40 -25 -40 368 -40 207
0 421 -3 475 -7 84 -5 97 -4 97 10 0 8 -17 26 -37 39 -36 22 -47 23 -228 24
-104 0 -297 -2 -428 -5z"/>
<path d="M13535 11759 c-4 -6 -5 -12 -2 -15 2 -3 7 2 10 11 7 17 1 20 -8 4z"/>
<path d="M13541 11704 c0 -11 3 -14 6 -6 3 7 2 16 -1 19 -3 4 -6 -2 -5 -13z"/>
<path d="M5390 11429 c0 -5 5 -7 10 -4 6 3 10 8 10 11 0 2 -4 4 -10 4 -5 0
-10 -5 -10 -11z"/>
<path d="M13958 11433 c79 -2 205 -2 280 0 75 1 11 3 -143 3 -154 0 -216 -2
-137 -3z"/>
<path d="M14403 11433 c15 -2 39 -2 55 0 15 2 2 4 -28 4 -30 0 -43 -2 -27 -4z"/>
<path d="M14503 11433 c9 -2 23 -2 30 0 6 3 -1 5 -18 5 -16 0 -22 -2 -12 -5z"/>
<path d="M14703 11433 c71 -2 183 -2 250 0 67 1 10 3 -128 3 -137 0 -192 -2
-122 -3z"/>
<path d="M13133 10903 c42 -2 112 -2 155 0 42 1 7 3 -78 3 -85 0 -120 -2 -77
-3z"/>
<path d="M13428 10903 c7 -3 16 -2 19 1 4 3 -2 6 -13 5 -11 0 -14 -3 -6 -6z"/>
<path d="M13493 10903 c9 -2 23 -2 30 0 6 3 -1 5 -18 5 -16 0 -22 -2 -12 -5z"/>
<path d="M13698 10903 c7 -3 16 -2 19 1 4 3 -2 6 -13 5 -11 0 -14 -3 -6 -6z"/>
<path d="M13758 10903 c7 -3 16 -2 19 1 4 3 -2 6 -13 5 -11 0 -14 -3 -6 -6z"/>
<path d="M14003 10903 c103 -2 271 -2 375 0 103 1 18 2 -188 2 -206 0 -291 -1
-187 -2z"/>
<path d="M9148 10363 c7 -3 16 -2 19 1 4 3 -2 6 -13 5 -11 0 -14 -3 -6 -6z"/>
<path d="M11238 10363 c7 -3 16 -2 19 1 4 3 -2 6 -13 5 -11 0 -14 -3 -6 -6z"/>
<path d="M13318 10363 c12 -2 30 -2 40 0 9 3 -1 5 -23 4 -22 0 -30 -2 -17 -4z"/>
<path d="M13408 10363 c7 -3 16 -2 19 1 4 3 -2 6 -13 5 -11 0 -14 -3 -6 -6z"/>
<path d="M13493 10363 c31 -2 83 -2 115 0 31 2 5 3 -58 3 -63 0 -89 -1 -57 -3z"/>
<path d="M12873 9854 c-24 -24 -25 -30 -20 -103 l5 -77 -41 -15 c-35 -12 -43
-20 -53 -54 l-11 -40 -140 2 c-77 1 -245 7 -374 12 -293 14 -3905 15 -4139 2
-91 -6 -234 -11 -319 -13 l-154 -3 -10 30 c-15 46 -36 65 -74 65 l-33 0 0 59
c0 38 4 61 13 64 9 4 9 6 0 6 -7 1 -13 14 -13 29 0 37 -17 52 -57 52 -44 0
-53 -21 -53 -118 l0 -80 -33 -6 c-19 -3 -45 -18 -58 -32 -23 -25 -24 -31 -27
-210 -3 -183 -3 -186 22 -228 68 -116 253 -104 307 20 11 24 25 44 32 44 39 0
383 -99 506 -145 l146 -56 290 -29 c394 -41 730 -86 850 -115 55 -13 146 -42
203 -64 57 -22 127 -47 157 -56 30 -8 55 -21 55 -28 0 -7 5 -41 10 -76 10 -69
27 -96 68 -106 15 -4 30 -12 34 -18 11 -17 9 -654 -2 -701 -10 -46 -37 -85
-72 -105 -22 -13 -26 -12 -50 12 -50 50 -129 48 -172 -4 -23 -27 -26 -40 -26
-103 l0 -72 -42 -24 c-24 -13 -71 -42 -105 -64 l-63 -41 0 -242 c0 -201 2
-243 14 -243 7 0 175 75 372 166 198 91 371 168 385 171 25 5 180 -63 668
-293 86 -41 117 -51 123 -42 4 7 8 118 8 246 l0 233 -105 67 -104 67 -1 71 c0
85 -20 118 -80 134 -46 12 -101 -5 -122 -39 -7 -12 -18 -21 -23 -21 -17 0 -73
62 -84 93 -7 18 -11 163 -11 403 0 317 2 374 14 374 25 0 55 50 67 111 l12 59
56 17 c31 8 94 31 141 49 47 18 122 42 168 53 149 38 492 91 792 121 343 35
376 41 490 85 172 66 449 145 511 145 20 0 30 -7 39 -30 15 -37 71 -87 106
-96 42 -11 120 2 151 24 56 39 63 71 63 264 0 198 -8 225 -75 249 -36 13 -36
14 -35 69 3 95 1 109 -20 130 -27 27 -46 25 -77 -6z m-5359 -314 c4 -5 7 -70
4 -145 -3 -121 -6 -139 -23 -151 -29 -21 -71 -17 -89 8 -21 29 -23 277 -4 296
13 13 95 7 112 -8z m5456 -132 c0 -118 -3 -145 -17 -160 -19 -22 -56 -23 -76
-4 -17 18 -33 203 -22 266 l7 40 54 0 54 0 0 -142z m-795 57 c297 -9 548 -18
558 -21 27 -8 23 -62 -5 -69 -191 -41 -425 -110 -564 -165 -67 -27 -111 -35
-338 -60 -322 -37 -810 -105 -886 -125 -31 -8 -115 -35 -186 -61 -213 -76
-215 -76 -265 -59 -107 38 -541 45 -624 11 -35 -15 -40 -14 -128 20 -51 20
-120 47 -154 60 -119 45 -259 67 -968 148 -210 25 -305 40 -343 55 -86 34
-428 137 -539 162 l-103 23 0 31 0 32 288 7 c158 5 330 11 382 15 52 3 824 7
1715 9 1262 2 1739 -1 2160 -13z m-1755 -613 l35 -8 -2 -54 c-3 -71 -12 -78
-65 -54 -35 16 -65 19 -173 18 -124 0 -145 -4 -226 -38 -14 -6 -19 3 -27 51
-6 32 -14 69 -18 82 l-7 24 224 -6 c123 -3 240 -10 259 -15z m-71 -206 c6 -4
11 -25 11 -47 l0 -40 -142 3 -143 3 -3 34 c-2 18 1 38 7 44 22 22 235 24 270
3z m-177 -631 c1 -245 3 -475 3 -512 0 -62 -2 -68 -25 -80 -70 -35 -594 -273
-602 -273 -5 0 -7 57 -6 127 l3 128 201 125 c244 151 266 168 301 228 l28 47
3 328 3 327 45 0 44 0 2 -445z m180 123 c3 -311 4 -325 25 -364 33 -62 96
-111 297 -235 99 -62 189 -119 199 -127 14 -13 17 -33 17 -139 0 -67 -4 -123
-8 -123 -10 0 -480 213 -558 253 -28 14 -54 33 -58 42 -3 9 -6 241 -6 516 l0
499 44 0 45 0 3 -322z m-583 -441 c8 -11 6 -18 -9 -32 -18 -16 -20 -16 -26 -1
-7 19 1 46 14 46 5 0 15 -6 21 -13z m931 -12 c0 -28 -8 -31 -35 -12 -21 16
-12 37 16 37 14 0 19 -7 19 -25z"/>
<path d="M7558 9773 c7 -3 16 -2 19 1 4 3 -2 6 -13 5 -11 0 -14 -3 -6 -6z"/>
<path d="M11810 8929 c-30 -5 -61 -12 -69 -15 -17 -6 44 -52 154 -117 l70 -41
-53 -8 c-86 -13 -235 -67 -317 -115 -42 -24 -109 -75 -149 -114 -40 -38 -76
-69 -79 -69 -4 0 -56 75 -118 168 -61 92 -117 173 -123 180 -11 11 -35 9 -135
-7 -67 -12 -126 -21 -131 -21 -5 0 15 -35 44 -77 79 -115 111 -177 148 -283
32 -94 32 -97 34 -295 1 -187 3 -205 27 -280 65 -198 244 -376 473 -471 91
-37 240 -74 305 -74 49 0 84 28 76 61 -4 13 -46 79 -96 146 -49 67 -114 160
-145 205 l-57 84 80 178 c44 98 84 183 89 188 10 10 197 50 321 68 82 13 85
12 100 -8 84 -113 310 -398 323 -406 23 -14 67 11 75 43 4 14 7 91 7 171 0
114 -5 164 -22 233 -49 200 -163 374 -299 460 -37 24 -88 47 -268 122 -49 21
-113 53 -141 72 -28 18 -55 32 -60 32 -5 -1 -34 -5 -64 -10z m-673 -286 c33
-48 90 -140 128 -203 112 -188 206 -330 220 -330 29 0 47 15 90 76 81 113 203
197 347 239 54 15 56 17 49 43 -7 24 -12 27 -51 25 -28 -1 -79 -20 -148 -54
-90 -44 -118 -63 -190 -136 l-85 -85 -17 22 c-10 13 -30 47 -46 76 l-29 53 25
27 c48 52 173 145 241 179 121 61 205 80 364 80 l140 0 75 -37 c131 -63 224
-186 273 -358 23 -79 45 -240 34 -240 -3 0 -58 70 -121 155 -75 100 -126 160
-144 167 -34 13 -172 -2 -352 -38 -172 -35 -181 -41 -231 -132 -56 -105 -169
-370 -169 -397 0 -20 86 -149 207 -309 l37 -49 -29 7 c-74 19 -193 72 -261
118 -83 56 -160 138 -217 230 -64 106 -71 139 -72 358 -2 212 -9 255 -66 399
-17 41 -46 103 -65 137 -68 122 -25 106 63 -23z"/>
<path d="M9285 8810 c-3 -6 1 -7 9 -4 18 7 21 14 7 14 -6 0 -13 -4 -16 -10z"/>
<path d="M8035 8482 c-11 -2 -30 -14 -43 -25 -19 -18 -22 -28 -17 -57 5 -27 0
-48 -20 -86 -14 -27 -28 -67 -31 -89 -5 -39 -5 -40 10 -15 l15 25 1 -30 1 -30
13 35 c29 77 30 86 14 72 -13 -10 -17 -10 -22 3 -4 11 -2 14 6 9 8 -5 9 -2 5
9 -7 19 8 23 19 6 4 -8 9 -7 15 2 6 11 15 7 38 -15 29 -28 29 -29 15 -68 -19
-53 -19 -178 -1 -178 21 0 28 12 16 27 -9 9 -8 13 0 13 6 0 11 7 11 16 0 8 -4
13 -9 9 -6 -3 -13 10 -17 30 -7 39 11 95 30 95 7 0 48 -17 92 -38 43 -21 117
-53 163 -72 93 -37 114 -34 119 16 3 26 -12 45 -125 155 -157 154 -228 197
-298 181z"/>
<path d="M8488 8443 c6 -2 18 -2 25 0 6 3 1 5 -13 5 -14 0 -19 -2 -12 -5z"/>
<path d="M8425 8419 c-4 -6 -5 -12 -2 -15 2 -3 7 2 10 11 7 17 1 20 -8 4z"/>
<path d="M8443 8393 c-13 -2 -23 -9 -23 -14 0 -13 21 -11 50 6 25 14 17 16
-27 8z"/>
<path d="M7916 7995 c9 -82 13 -93 35 -88 11 3 21 9 24 13 3 5 -4 6 -14 3 -16
-4 -22 5 -35 59 -15 61 -16 62 -10 13z"/>
<path d="M9211 8004 c0 -11 3 -14 6 -6 3 7 2 16 -1 19 -3 4 -6 -2 -5 -13z"/>
<path d="M9065 7990 c-3 -5 -1 -10 4 -10 6 0 11 5 11 10 0 6 -2 10 -4 10 -3 0
-8 -4 -11 -10z"/>
<path d="M8570 7980 c-9 -6 -10 -10 -3 -10 6 0 15 5 18 10 8 12 4 12 -15 0z"/>
<path d="M9172 7970 c0 -14 2 -19 5 -12 2 6 2 18 0 25 -3 6 -5 1 -5 -13z"/>
<path d="M8605 7954 c-19 -15 -25 -24 -15 -24 8 -1 3 -8 -13 -16 -15 -8 -32
-12 -38 -9 -18 12 -61 13 -51 3 6 -6 31 -13 57 -15 37 -5 49 -11 60 -33 8 -16
21 -34 28 -42 14 -14 91 -119 131 -179 14 -20 43 -52 65 -71 23 -19 41 -39 41
-45 0 -5 -21 -22 -47 -37 l-48 -27 38 7 c35 6 51 -6 27 -21 -5 -3 -10 -12 -10
-18 0 -8 3 -8 8 -2 4 6 13 11 20 13 20 4 62 33 62 43 0 5 18 9 40 9 68 0 104
57 77 121 -29 70 -229 259 -357 338 l-46 28 -29 -23z"/>
<path d="M9035 7960 c27 -12 35 -12 35 0 0 6 -12 10 -27 9 -25 0 -26 -1 -8 -9z"/>
<path d="M9180 7875 c-7 -22 -19 -49 -26 -60 -14 -19 -14 -19 -15 5 0 23 -1
23 -8 5 -8 -20 2 -35 25 -35 12 0 48 94 42 112 -3 7 -11 -5 -18 -27z"/>
<path d="M9140 7859 c0 -5 5 -7 10 -4 6 3 10 8 10 11 0 2 -4 4 -10 4 -5 0 -10
-5 -10 -11z"/>
<path d="M8507 7820 c-7 -26 29 -46 68 -36 20 5 26 12 23 28 -2 17 -11 22 -44
25 -35 3 -42 1 -47 -17z"/>
<path d="M8660 7720 c20 -13 33 -13 25 0 -3 6 -14 10 -23 10 -15 0 -15 -2 -2
-10z"/>
<path d="M8725 7604 l-20 -16 20 3 c11 2 26 0 33 -5 17 -10 24 -3 16 18 -8 20
-23 20 -49 0z"/>
<path d="M8400 7569 c0 -5 5 -7 10 -4 6 3 10 8 10 11 0 2 -4 4 -10 4 -5 0 -10
-5 -10 -11z"/>
<path d="M8743 7560 c-13 -5 -23 -12 -23 -15 0 -9 16 -5 36 10 22 16 19 18
-13 5z"/>
<path d="M5335 6460 c-12 -4 -26 -14 -32 -21 -6 -8 -90 -166 -187 -353 -98
-186 -184 -349 -193 -362 l-15 -24 61 0 61 0 26 53 c15 28 43 81 64 117 21 36
85 157 142 270 58 113 109 207 113 208 5 2 52 -83 106 -190 l98 -193 -152 -5
-152 -5 -22 -45 -21 -45 201 -3 202 -3 40 -77 41 -77 63 -3 63 -3 -41 76 c-23
41 -106 198 -184 348 -79 149 -151 284 -160 298 -28 42 -77 58 -122 39z"/>
<path d="M7984 6460 c-99 -20 -187 -88 -226 -177 -31 -71 -44 -190 -30 -285
15 -103 50 -175 108 -227 64 -56 117 -72 265 -78 267 -12 397 46 460 203 20
51 23 76 23 184 0 147 -18 208 -86 284 -46 54 -91 79 -166 95 -60 12 -286 13
-348 1z m358 -107 c93 -42 138 -128 138 -267 0 -115 -21 -181 -75 -232 -56
-54 -113 -68 -272 -67 -108 0 -127 3 -169 24 -96 48 -141 152 -131 304 10 161
74 236 222 259 17 2 78 3 136 1 79 -2 117 -7 151 -22z"/>
<path d="M9040 6463 c-8 -3 -23 -12 -32 -21 -17 -14 -18 -45 -18 -379 l0 -363
50 0 50 0 0 306 c0 188 4 304 9 302 6 -1 34 -30 63 -64 124 -142 481 -525 498
-534 32 -17 60 -11 91 19 l29 29 0 351 0 351 -52 0 -53 0 3 -311 c2 -190 0
-310 -6 -308 -5 2 -33 32 -63 66 -100 115 -373 417 -439 485 -62 64 -97 84
-130 71z"/>
<path d="M6000 6456 c0 -2 77 -163 171 -358 187 -386 206 -414 267 -404 20 3
44 13 53 23 15 15 379 726 379 739 0 2 -26 4 -58 4 l-59 0 -159 -329 c-87
-181 -162 -327 -165 -323 -4 4 -76 152 -160 329 l-154 323 -57 0 c-32 0 -58
-2 -58 -4z"/>
<path d="M7220 6080 l0 -380 50 0 50 0 0 380 0 380 -50 0 -50 0 0 -380z"/>
</g>
</svg>
