<svg width="200" height="200" viewBox="0 0 200 200" fill="none" xmlns="http://www.w3.org/2000/svg">
  <defs>
    <linearGradient id="skyGradient" x1="0%" y1="0%" x2="100%" y2="100%">
      <stop offset="0%" style="stop-color:#87CEEB;stop-opacity:1" />
      <stop offset="100%" style="stop-color:#ADD8E6;stop-opacity:1" />
    </linearGradient>
    <linearGradient id="steelGradient" x1="0%" y1="0%" x2="100%" y2="100%">
      <stop offset="0%" style="stop-color:#B0BEC5;stop-opacity:1" />
      <stop offset="100%" style="stop-color:#78909C;stop-opacity:1" />
    </linearGradient>
  </defs>

  <rect width="200" height="200" rx="30" fill="url(#skyGradient)"/>

  <g transform="translate(20, 20)">
    <path d="M100 50 C110 40, 140 40, 150 50 L145 60 C135 50, 115 50, 105 60 Z" fill="url(#steelGradient)"/>
    <circle cx="125" cy="55" r="5" fill="#424242"/>
    <rect x="120" y="55" width="10" height="20" fill="url(#steelGradient)"/>
    <path d="M125 75 L115 85 L135 85 Z" fill="url(#steelGradient)"/>

    <path d="M40 100 L80 100 L90 95 L90 105 L80 100 Z" fill="url(#steelGradient)"/>
    <path d="M70 100 C75 90, 85 90, 90 100 L95 105 L65 105 Z" fill="url(#steelGradient)"/>
    <rect x="50" y="98" width="20" height="4" fill="#424242"/>

    <path d="M140 140 L160 140 L165 150 L145 150 Z" fill="url(#steelGradient)"/>
    <path d="M150 145 C155 140, 160 140, 165 145 L160 155 L145 155 Z" fill="url(#steelGradient)"/>
    <circle cx="150" cy="145" r="3" fill="#424242"/>
  </g>
</svg>